<?xml version="1.0" encoding="iso-8859-1"?>
<!-- Generator: Adobe Illustrator 16.0.0, SVG Export Plug-In . SVG Version: 6.00 Build 0)  -->
<!DOCTYPE svg PUBLIC "-//W3C//DTD SVG 1.1//EN" "http://www.w3.org/Graphics/SVG/1.1/DTD/svg11.dtd">
<svg version="1.1" id="Capa_1" xmlns="http://www.w3.org/2000/svg" xmlns:xlink="http://www.w3.org/1999/xlink" x="0px" y="0px"
	 width="475.062px" height="475.062px" viewBox="0 0 475.062 475.062" style="enable-background:new 0 0 475.062 475.062;"
	 xml:space="preserve">
<g>
	<g>
		<path d="M236.646,475.062c0-46.695,288.896-16.099,205.156-183.581c-83.739-167.478,7.081-217.398,7.081-217.398l-36.929-54.757
			C321.775,86.955,236.646,0,236.646,0S153.996,86.955,63.809,19.326L28.123,74.083c0,0,88.961,49.92,5.22,217.398
			C-50.396,458.964,236.646,428.367,236.646,475.062z M204.913,193.699l31.733-97.667l31.735,97.667h102.697l-83.081,60.895
			l31.73,97.938l-83.082-60.228l-83.082,60.424l31.731-98.166l-83.08-60.863H204.913z"/>
	</g>
</g>
<g>
</g>
<g>
</g>
<g>
</g>
<g>
</g>
<g>
</g>
<g>
</g>
<g>
</g>
<g>
</g>
<g>
</g>
<g>
</g>
<g>
</g>
<g>
</g>
<g>
</g>
<g>
</g>
<g>
</g>
</svg>
