<?xml version="1.0" encoding="iso-8859-1"?>
<!-- Generator: Adobe Illustrator 19.0.0, SVG Export Plug-In . SVG Version: 6.00 Build 0)  -->
<svg version="1.1" id="Capa_1" xmlns="http://www.w3.org/2000/svg" xmlns:xlink="http://www.w3.org/1999/xlink" x="0px" y="0px"
	 viewBox="0 0 497.069 497.069" style="enable-background:new 0 0 497.069 497.069;" xml:space="preserve">
<g>
	<g>
		<path d="M25.15,34.821c-3.2,1.981-5.159,5.508-5.159,9.252v337.423c0,4.136,2.308,7.902,6.008,9.753l211.64,105.82V135.308
			L35.751,34.342C32.355,32.688,28.371,32.84,25.15,34.821z M471.898,34.821c-3.2-1.981-7.206-2.155-10.58-0.479L259.43,135.308
			v361.761l211.64-105.82c3.701-1.85,6.008-5.616,6.008-9.753V44.073C477.057,40.329,475.098,36.802,471.898,34.821z M432.387,5.977
			c-2.721-5.355-9.274-7.532-14.629-4.789l-169.234,85.64L79.29,1.21c-5.355-2.721-11.886-0.588-14.629,4.767
			c-2.699,5.399-0.566,11.93,4.789,14.651l174.154,88.122c1.546,0.784,3.222,1.176,4.92,1.176s3.374-0.392,4.92-1.176
			l174.154-88.122C432.974,17.907,435.108,11.376,432.387,5.977z"/>
	</g>
</g>
<g>
</g>
<g>
</g>
<g>
</g>
<g>
</g>
<g>
</g>
<g>
</g>
<g>
</g>
<g>
</g>
<g>
</g>
<g>
</g>
<g>
</g>
<g>
</g>
<g>
</g>
<g>
</g>
<g>
</g>
</svg>
